<svg width="200" height="200" viewBox="0 0 200 200" fill="none" xmlns="http://www.w3.org/2000/svg">
<g clip-path="url(#clip0_12_37637)">
<rect width="200" height="200" fill="#D0D0D0"/>
<path fill-rule="evenodd" clip-rule="evenodd" d="M26.2213 62.6972V64.3486L31.1757 65.7248L41.0844 69.3027L43.5616 69.578L44.112 69.0275L43.8368 67.6514L40.2587 66.5504L39.4329 66L37.7815 65.7248L28.4232 62.422H26.4966L26.2213 62.6972ZM177.329 58.844L176.228 58.2936L174.026 59.1193L160.264 66L159.714 66.5504L160.264 67.9266L162.466 67.6514L174.577 61.5963L176.503 61.0459L177.604 59.9449L177.329 58.844ZM32.8271 52.5138L32.5519 53.3394L33.9281 54.9908L36.4053 56.367L43.0111 61.0459L44.9378 62.1468H46.314L46.8645 61.5963V60.7706L45.7635 59.6697L37.5062 54.1651L35.5795 52.5138L34.4786 51.9633H33.3776L32.8271 52.5138ZM171.274 48.1101L170.173 47.2844L169.072 47.8349L163.017 53.8899L156.686 59.1193V60.4954L157.237 61.0459H158.337L161.365 58.844L170.999 50.0367L171.274 48.1101ZM144.025 146.367L147.878 148.294L152.282 151.046V151.596L148.979 157.651L140.722 152.422L142.373 148.569L144.025 146.367ZM148.704 136.459L157.237 141.138V141.688L153.658 148.294H153.108L152.557 147.743L148.979 146.092L145.126 143.615L148.704 136.459ZM154.209 125.725L156.136 127.101L161.365 129.578L162.191 130.404V131.229L158.337 138.661L150.08 133.982V133.156L153.108 127.101L154.209 125.725ZM159.163 115.816H159.714L166.87 120.22V121.046L166.32 121.596V122.147L163.567 127.651L162.466 127.376L159.714 125.45L155.31 123.248L158.337 116.917L159.163 115.816ZM126.96 32.6972L128.336 33.7982V35.7248L127.786 36.8257V37.6514L125.033 43.7064L122.006 48.3853L117.051 58.2936L116.776 59.3945L117.602 60.7706L119.528 60.4954L124.758 50.8624L129.988 42.8807L132.74 39.3027L136.869 35.7248L137.97 36.5504V38.7523L137.144 41.7798L135.768 44.8073L131.364 51.4128L127.786 58.0183L126.409 59.9449L125.584 61.5963L125.859 63.5229L126.685 64.3486H127.51L128.061 63.7982L135.492 51.6881L139.896 45.9082L144.851 41.2293L145.952 40.6789L147.053 40.9541L147.328 42.055L146.777 43.9816L143.75 49.4862L133.566 65.1743L133.29 67.1009L134.116 67.9266H135.217L136.318 67.1009V66.5504L138.52 62.6972L145.676 52.789L148.154 50.3119L149.255 49.7615L150.08 50.0367L147.328 57.1926L142.649 66.2752L140.997 70.4037V71.2294L139.346 74.8073L136.869 84.9908L136.318 92.1468L136.043 92.422V97.1009L137.97 103.156L140.722 107.56L145.676 112.239L154.484 118.294V118.844L148.979 129.303L147.878 132.33L142.649 142.789L140.997 141.963L132.189 133.706L126.96 127.927L123.107 122.972L120.905 119.67L117.877 116.092L116.501 113.064L114.574 110.587L112.097 109.211L107.418 105.358L105.766 103.431L105.491 101.78L109.069 96.5504L112.923 88.844L114.574 83.6147L115.124 82.789L117.602 73.4312L117.877 67.3761L117.326 65.7248L116.225 64.6238L115.4 64.3486H112.372L111.822 64.6238L110.445 66.2752L109.069 69.0275L107.693 70.6789L104.39 76.1835L103.84 75.9082L103.289 69.8532L106.867 62.9725L111.822 54.4404L112.923 53.0642L116.501 46.4587L118.152 44.2569L119.804 40.9541L123.107 36L125.584 33.5229L126.96 32.6972ZM85.1231 30.2202L88.1508 32.9725L90.3527 36.5504L91.7289 41.2293L92.5546 42.6055L95.3071 51.1376L95.8576 51.9633L97.2338 58.5688L98.3347 61.5963L98.8852 65.7248L99.9862 69.8532V71.7798L100.261 72.055V73.9816L100.537 74.2569V76.1835L100.812 76.4587L101.638 83.3394L102.739 84.1651L104.39 83.6147L107.693 77.0092L112.923 68.7523L113.748 67.9266H114.299L114.574 68.2018V70.1284L112.923 78.6605L109.895 87.4679L103.014 100.679L98.8852 105.083L97.7842 105.633L92.8299 109.761L92.0042 110.037L90.628 111.413L84.2974 121.321L75.4896 132.055L71.6362 135.633L70.5353 134.532L64.48 124.899L56.4979 114.44V113.89L62.0028 107.835L65.3057 102.055L67.2324 96.2752L67.5076 92.422L68.3333 89.3945V82.789L68.0581 82.5137V80.3119L67.2324 77.2844L66.9571 74.2569L63.9295 64.0734L62.5533 61.0459L58.9751 50.5871L59.8008 49.7615H60.6266L62.0028 50.5871L63.6542 52.2385L67.2324 58.844L71.0858 67.9266H72.462L73.2877 67.3761L73.8382 66L71.0858 59.6697L69.9848 55.5413L69.4343 54.7156L68.3333 50.8624L66.6819 47.5596L65.0304 42.3303V41.2293L65.8562 40.1284H67.5076L68.6086 40.6789L70.5353 42.8807L73.8382 49.4862L75.7649 55.266L79.0678 63.2477L79.8935 64.3486H80.9945L81.545 63.7982L82.0954 61.5963L81.545 60.7706V59.9449L80.444 56.9174L80.1688 54.7156L75.4896 40.6789L73.2877 35.1743V33.2477L73.8382 32.6972L75.7649 32.9725L78.2421 34.8991L80.7192 39.3027L85.6736 51.9633L86.2241 54.9908L88.1508 61.3211L89.2517 62.1468L90.628 61.8715L91.1784 61.3211L90.3527 57.4679V56.0917L85.1231 40.1284L83.7469 34.8991L83.4717 31.5963L84.5726 30.2202H85.1231Z" fill="#FFFFB0"/>
<path fill-rule="evenodd" clip-rule="evenodd" d="M23.2213 66.6972V68.3486L28.1757 69.7248L38.0844 73.3027L40.5615 73.578L41.112 73.0275L40.8368 71.6514L37.2586 70.5504L36.4329 70L34.7815 69.7248L25.4232 66.422H23.4965L23.2213 66.6972ZM174.329 62.844L173.228 62.2936L171.026 63.1193L157.264 70L156.714 70.5504L157.264 71.9266L159.466 71.6514L171.577 65.5963L173.503 65.0459L174.604 63.9449L174.329 62.844ZM29.8271 56.5138L29.5519 57.3394L30.9281 58.9908L33.4053 60.367L40.0111 65.0459L41.9378 66.1468H43.314L43.8645 65.5963V64.7706L42.7635 63.6697L34.5062 58.1651L32.5795 56.5138L31.4786 55.9633H30.3776L29.8271 56.5138ZM168.274 52.1101L167.173 51.2844L166.072 51.8349L160.017 57.8899L153.686 63.1193V64.4954L154.237 65.0459H155.337L158.365 62.844L167.999 54.0367L168.274 52.1101ZM-1 137.982V146.239L-0.724758 146.514V186.697L-0.174274 187.798L0.651452 188.349L8.90871 186.697L14.1383 185.046L14.964 184.495H15.7898L24.3223 180.917L36.7082 174.037L49.3693 165.229L62.3057 154.22L65.3333 152.018L71.6639 145.963L71.9391 145.138L70.2877 142.385L77.9945 134.954L81.5726 130.55L85.9765 124.22L88.4537 119.816V119.266L89.8299 117.339L92.8575 114.587L96.1604 112.661L99.7386 109.633H100.289L101.665 111.009L109.097 116.514L117.079 128.899L121.483 134.404L130.015 143.211L137.997 150.092L134.97 155.596V157.523L141.3 162.202L146.805 165.229L149.833 167.706L167.448 178.991L178.458 184.495L179.834 184.771L185.064 187.523L188.367 188.624L189.743 189.45L191.394 190H193.321L193.871 189.45V187.248L193.596 186.972L190.018 185.872L175.705 179.816L173.228 178.165L166.622 174.862L164.42 173.211L159.466 170.459L158.64 169.633L150.658 164.404L149.282 163.853L148.456 163.028V162.202L149.007 161.651V161.101L151.209 156.697L151.759 156.147L156.989 145.963L160.017 138.532L160.842 137.431L161.118 136.055L166.072 125.872H166.622L172.127 128.899L185.339 134.404L190.293 136.881L192.495 137.431L196.073 139.083L197.45 138.807L198 138.257V136.605L197.725 136.055L196.349 135.78L187.816 131.927L179.008 128.624L171.852 125.046H171.302L167.448 123.119L165.797 121.743L163.87 121.193L162.494 120.092L159.466 118.716L155.888 116.514L154.787 116.789L153.961 118.44L153.136 119.266L144.328 113.486L139.373 108.532L137.447 104.954L136.346 101.651V98.3486L136.071 97.7981L136.346 97.5229L136.621 92.0183L138.272 84.0367L140.474 77.156L141.025 76.3303L141.575 73.8532L149.833 56.2385L150.383 54.3119V52.6605L149.007 51.0092L146.53 50.1835L147.631 47.156V44.9541L146.805 43.0275L145.704 41.9266L144.328 41.3761H142.126L140.75 41.9266L137.997 44.1284L137.722 43.8532L137.997 39.4495L137.722 38.6238L136.346 37.2477L135.245 36.6972H132.492L128.914 39.4495L128.639 39.1743L128.364 36.422L127.813 35.3211L126.712 34.2202L125.336 33.6697H123.409L122.033 34.2202L118.73 37.2477L112.124 46.8807L111.574 48.2569L108.271 53.7615L105.794 57.0642L99.4633 68.0734L98.9129 67.5229L98.3624 63.9449L96.7109 58.4404L95.8852 54.3119L94.509 51.0092L93.1328 46.3303L92.0318 44.1284L91.7566 42.7523L90.3804 40.2752L89.8299 38.0734L87.0775 33.3945L85.426 32.0183L83.7745 31.1926L81.0221 30.9174L78.5449 32.2936L77.7192 33.3945L76.8935 35.8715L74.6916 34.2202L71.9391 33.1193H70.5629L68.6362 33.9449L67.5353 35.0459L66.7095 37.2477L67.5353 41.6514L67.26 41.9266L66.1591 41.1009L64.2324 40.5504H62.3057L60.9295 41.1009L59.5532 42.4771L58.7275 44.6789V47.156L59.8285 51.0092L59.5532 51.2844L58.177 50.4587H55.6999L54.5989 51.0092L52.9474 53.211L53.2227 56.5138L54.5989 59.5413L60.1037 76.6055L60.9295 79.9082V81.2844L61.7552 84.8624V87.8899L62.0304 88.1651V93.6697L60.379 101.651L59.8285 102.477L59.278 104.679L56.2503 109.908L51.5712 115.413H51.0207L49.3693 113.761L48.5436 114.037L45.7911 116.239L40.0111 120.092L36.4329 122.018L34.7815 123.394L22.6708 129.725L17.166 131.651L11.9364 134.128L3.40387 136.881L-0.449516 137.431L-1 137.982ZM141.025 150.367L144.878 152.294L149.282 155.046V155.596L145.979 161.651L137.722 156.422L139.373 152.569L141.025 150.367ZM145.704 140.459L154.237 145.138V145.688L150.658 152.294H150.108L149.557 151.743L145.979 150.092L142.126 147.615L145.704 140.459ZM151.209 129.725L153.136 131.101L158.365 133.578L159.191 134.404V135.229L155.337 142.661L147.08 137.982V137.156L150.108 131.101L151.209 129.725ZM156.163 119.816H156.714L163.87 124.22V125.046L163.319 125.596V126.147L160.567 131.651L159.466 131.376L156.714 129.45L152.31 127.248L155.337 120.917L156.163 119.816ZM123.96 36.6972L125.336 37.7982V39.7248L124.786 40.8257V41.6514L122.033 47.7064L119.006 52.3853L114.051 62.2936L113.776 63.3945L114.602 64.7706L116.528 64.4954L121.758 54.8624L126.988 46.8807L129.74 43.3027L133.869 39.7248L134.97 40.5504V42.7523L134.144 45.7798L132.768 48.8073L128.364 55.4128L124.786 62.0183L123.409 63.9449L122.584 65.5963L122.859 67.5229L123.685 68.3486H124.51L125.061 67.7982L132.492 55.6881L136.896 49.9082L141.851 45.2293L142.952 44.6789L144.053 44.9541L144.328 46.055L143.777 47.9816L140.75 53.4862L130.566 69.1743L130.29 71.1009L131.116 71.9266H132.217L133.318 71.1009V70.5504L135.52 66.6972L142.676 56.789L145.154 54.3119L146.254 53.7615L147.08 54.0367L144.328 61.1926L139.649 70.2752L137.997 74.4037V75.2294L136.346 78.8073L133.869 88.9908L133.318 96.1468L133.043 96.422V101.101L134.97 107.156L137.722 111.56L142.676 116.239L151.484 122.294V122.844L145.979 133.303L144.878 136.33L139.649 146.789L137.997 145.963L129.189 137.706L123.96 131.927L120.106 126.972L117.905 123.67L114.877 120.092L113.501 117.064L111.574 114.587L109.097 113.211L104.418 109.358L102.766 107.431L102.491 105.78L106.069 100.55L109.923 92.844L111.574 87.6147L112.124 86.789L114.602 77.4312L114.877 71.3761L114.326 69.7248L113.225 68.6238L112.4 68.3486H109.372L108.822 68.6238L107.445 70.2752L106.069 73.0275L104.693 74.6789L101.39 80.1835L100.84 79.9082L100.289 73.8532L103.867 66.9725L108.822 58.4404L109.923 57.0642L113.501 50.4587L115.152 48.2569L116.804 44.9541L120.106 40L122.584 37.5229L123.96 36.6972ZM82.1231 34.2202L85.1508 36.9725L87.3527 40.5504L88.7289 45.2293L89.5546 46.6055L92.3071 55.1376L92.8575 55.9633L94.2337 62.5688L95.3347 65.5963L95.8852 69.7248L96.9862 73.8532V75.7798L97.2614 76.055V77.9816L97.5367 78.2569V80.1835L97.8119 80.4587L98.6376 87.3394L99.7386 88.1651L101.39 87.6147L104.693 81.0092L109.923 72.7523L110.748 71.9266H111.299L111.574 72.2018V74.1284L109.923 82.6605L106.895 91.4679L100.014 104.679L95.8852 109.083L94.7842 109.633L89.8299 113.761L89.0041 114.037L87.6279 115.413L81.2974 125.321L72.4896 136.055L68.6362 139.633L67.5353 138.532L61.4799 128.899L53.4979 118.44V117.89L59.0028 111.835L62.3057 106.055L64.2324 100.275L64.5076 96.422L65.3333 93.3945V86.789L65.0581 86.5137V84.3119L64.2324 81.2844L63.9571 78.2569L60.9295 68.0734L59.5532 65.0459L55.9751 54.5871L56.8008 53.7615H57.6266L59.0028 54.5871L60.6542 56.2385L64.2324 62.844L68.0857 71.9266H69.462L70.2877 71.3761L70.8382 70L68.0857 63.6697L66.9848 59.5413L66.4343 58.7156L65.3333 54.8624L63.6819 51.5596L62.0304 46.3303V45.2293L62.8562 44.1284H64.5076L65.6086 44.6789L67.5353 46.8807L70.8382 53.4862L72.7649 59.266L76.0678 67.2477L76.8935 68.3486H77.9945L78.5449 67.7982L79.0954 65.5963L78.5449 64.7706V63.9449L77.444 60.9174L77.1687 58.7156L72.4896 44.6789L70.2877 39.1743V37.2477L70.8382 36.6972L72.7649 36.9725L75.242 38.8991L77.7192 43.3027L82.6736 55.9633L83.2241 58.9908L85.1508 65.3211L86.2517 66.1468L87.6279 65.8715L88.1784 65.3211L87.3527 61.4679V60.0917L82.1231 44.1284L80.7469 38.8991L80.4716 35.5963L81.5726 34.2202H82.1231Z" fill="black"/>
<path d="M175.722 78.4398L176.388 79.475L176.063 80.5622L174.554 80.9473L172.616 80.4375L159.111 79.4653L157.077 78.5784L157.306 77.114L158.06 76.9215L173.407 78.0263L175.722 78.4398Z" fill="#FFFFB0"/>
<path d="M41.167 81.4621L42.1281 82.2311L42.1664 83.3653L40.8591 84.2109L38.8598 84.3453L25.7489 87.7269L23.5382 87.5344L23.2884 86.0734L23.9421 85.6506L38.8409 81.8078L41.167 81.4621Z" fill="#FFFFB0"/>
</g>
<defs>
<clipPath id="clip0_12_37637">
<rect width="200" height="200" fill="white"/>
</clipPath>
</defs>
</svg>
